<svg width="110" height="135" viewBox="0 0 110 135" xmlns="http://www.w3.org/2000/svg">
  <path d="m44.83,19.53c-1.08,10.22 9.86,10.77 12.79,14.71 -7.39,-4.5 -6.86,-1.63 -14.42,-4.68 4.43,5.7 7.36,2.11 11.58,6.97 -3.03,0.11 -11.6,3.46 -9.77,12.75 1.34,6.81 10.29,9.39 14.67,13.2 3.84,3.34 5.68,6.82 4.27,11.02 -1.4,4.2 -5.01,2.69 -8.66,1.33 -3.65,-1.36 -7.89,-2.27 -10.66,2.47 -2.62,4.48 1.84,9.48 3.69,12.5 -2.27,-3.59 -7.09,-7.27 -4.24,-12.75 2.3,-4.42 5.57,-4.09 9.07,-3.58 3.5,0.52 6.87,4 9.51,0.73 1.76,-2.17 1.23,-7.75 -4.5,-11.7 -8.89,-6.14 -13.13,-7.13 -14.23,-14.4 -1.09,-7.18 5.91,-11.74 9.41,-11.78 -2.44,-3.71 -11.21,-3.24 -14.52,0.99 2.47,-0.8 4.55,-0.56 5.32,0.23 -7.04,3.38 -8.03,6.76 -8,10.14 1.58,-3.01 3.01,-3.22 4.46,-3.6 -0.81,1.68 -4.49,6.44 -0.96,12.25 0.18,-1.9 0.3,-3.85 1.7,-4.88 0.23,2.74 0.22,6.54 4.98,9.64 -0.49,-0.89 -0.89,-2 -0.96,-3.86 1.97,2.46 4.84,5 7.54,7.53 -0.25,-0.87 -0.46,-1.76 -0.5,-2.77 1.89,2.22 4.3,2.44 5.58,7.06 0.55,-0.78 0.66,-1.66 0.65,-2.58 1.06,1.33 2.19,4.62 0.5,5.21 -1.29,0.45 -2.11,-2.08 -4.17,-2.58 0.61,0.96 1.31,1.92 1.12,2.95 -4.67,-4.46 -7.57,-4.64 -10.32,-4.46 0.97,0.56 2,0.98 2.63,2.4 -5.75,-0 -7.22,3.43 -7.98,5.39 0.66,-0.41 1.34,-0.76 2.06,-0.96 -1.54,2.27 -2.9,4.71 -1.98,9.23 0.13,-0.96 0.54,-1.71 1.15,-2.32 -0.38,4.25 0.92,5.97 1.93,7.43 0.02,-0.81 -0.02,-1.64 0.34,-2.32 3.1,2.62 2.88,9.68 -5.45,7.72 -3.7,-0.87 -6.19,-5.42 -5.34,-9.04 0.66,-2.82 1.32,-1.59 3.13,-6.73 -2.65,1.8 -6.64,4.07 -5.06,10.32 -4.62,-13.09 10.55,-9.61 8.27,-20.05 -0.61,2.66 -2.16,3.68 -4.02,4.2 5.55,-7.79 0.71,-11.8 -1.17,-12.43 1.98,2.7 0.71,5.39 -0.42,7.43 1.12,-4.88 -8.78,-8.19 -2.09,-13.74 0,0 -3.51,0.07 -5.19,5.47 -1.38,4.45 3,6.72 3.47,9.26 -1.35,-2.2 -4,-0.55 -5.81,-4.36 -0.79,7.39 7.58,5.76 5.68,12.41 -0.69,-2.31 -1.92,-3.13 -3.23,-3.73 1.77,3.38 -0.41,5.02 1.84,8.63 -3,12.16 6.62,16.72 11.25,17 -0.84,0.78 -2,0.92 -3.18,1.02 4.09,1.54 8.5,-0.26 10.09,-1.49 -0.23,0.9 -0.7,1.48 -1.12,2.11 2.68,-1.43 5.73,-3.5 6.23,-7.35 0.36,-2.83 0,-5.66 -2.3,-8.39 -1.04,-1.23 -1.93,-3.26 -1.07,-4.69 0.86,-1.43 2.89,-1.46 5,-0.42 2.11,1.04 4.82,1.88 4.82,1.88 0.1,1.44 0.07,2.82 -2.55,3.1 0.92,1.29 2.51,1.46 5.37,1.22 1.41,-0.12 3.37,1.53 5.08,2.27 0.43,0.19 0.09,1.03 -0.63,1.28 -0.76,0.26 -2.45,-0.03 -2.61,1.8 -0.23,2.68 2.42,2.84 2.42,2.84s-1.02,-0.78 -0.75,-1.3c0.57,-1.14 0.77,-0.79 1.22,-1.02 0.84,-0.42 0.86,-1.51 3,-1.56 2.4,-0.06 2.48,1.56 3.13,2.06 0.52,0.39 1.22,0.21 1.38,1.2 0.16,0.99 -1.2,1.8 -1.2,1.8s2.77,0.02 2.79,-2.45c0.02,-1.82 -0.85,-2.32 -1.46,-2.5 -0.35,-0.11 -0.96,-0.86 -0.96,-0.86v-0h0l0,-0c0.03,-0.02 0.22,-0.13 1.27,-0.13 1.2,0 1.04,0.52 1.51,0.63 0.47,0.11 1.23,-0.11 1.83,0.63 0.6,0.73 0.44,1.51 0.44,1.52 0,0 1.12,-1.02 0.42,-3.16 -0.7,-2.14 -4.98,-1.43 -4.98,-1.43 1.09,-1.67 2.39,-2.7 4.38,-1.44 0,0 -0.59,-2.29 -3.29,-2.11 -1.85,0.13 -1.72,1.82 -3.83,2.32 -2.11,0.5 -5.94,-2.24 -5.94,-2.24 2,-0.96 2.6,-2.07 3.26,-3.31 -2.31,1.43 -3.87,1.3 -5.21,0.73 3.85,0 6.94,-2.95 8.45,-5.37 1.77,-2.85 2.37,-7.74 -0.57,-12.98 -2.95,-5.24 -11.13,-7.88 -13.27,-8.97 -2.14,-1.09 -6.34,-2.79 -6.23,-7.51s5.53,-5.37 5.53,-5.37c-2.27,1.19 -2.76,3.23 -2.31,5.73 0.09,-0.32 1.43,-2.01 3.46,-2.44 2.09,-0.44 4.74,1.24 4.44,2.1 -0.27,0.76 -1.84,0.66 -2.6,0.2 0.26,0.68 0.97,1.23 2.82,1.27 0.84,0.02 3.76,1.85 3.17,2.84 -0.79,1.33 -2.3,0.05 -2.3,0.05 0.08,0.72 1.14,2.51 3.87,1.77 -0.4,0.5 -0.84,0.99 -1.53,1.44 0,0 1.66,0.05 3.36,-1.05 2.46,-1.61 1.84,-3.13 1.84,-3.13s-0.5,0.66 -1.4,0.61c-0.9,-0.05 -1.22,-1.36 -1.38,-2.21 -0.15,-0.78 -1.14,-2.47 -1.14,-2.47s0.81,0.35 1.61,1.27c0.79,0.92 0.84,2.2 2.78,2.6 2.31,0.48 3.36,-0.85 3.36,-0.85s-2.52,0.16 -3.67,-0.5c-1.14,-0.66 -1.77,-2.47 -2.43,-3.01s-1.51,-0.96 -2.23,-1.33c-0.72,-0.37 -1.61,-1.36 -1.61,-1.36 2.58,-0.34 8.08,-1.46 7.69,2.95 0,-0 2.02,-1.8 2.62,-1.44 0.46,0.28 -0.26,2.62 -0.26,2.62 0.35,-0.19 2.79,-2.43 3.39,-3.17 0.74,-0.91 1.66,-2.1 -0.07,-3.32 -1.73,-1.21 -1.94,-0.61 -3.19,-0.67 -1.28,-0.06 -1.9,-0.69 -3.48,-1.1 0,0 1,-0.88 0.7,-1.48 -1.23,-2.45 -5.77,-3.7 -8.89,-4.14 -4.69,-4.38 -15.33,-4.02 -17.99,-13.42zM53.91,46.9c-0,0.02 -0,0.03 -0,0.04 0,0 0,0 0,0.01l0.02,0.02h0.01c-0,-0.02 -0.01,-0.04 -0.01,-0.05zM56.59,22.95c-0.08,3.66 2.68,5.94 6.57,9.44 1.26,0.03 2.55,0.28 3.89,0.86 -0.86,-3.68 -8.34,-5.12 -10.45,-10.3zM63.42,36.32c2.01,0.34 4.15,0.63 5.45,2.63 0,0 -2.34,0.5 -3.16,-0.96 -0.5,-0.9 -2.29,-1.67 -2.29,-1.67zM80.36,55.29c-1.43,-0.04 -2.83,1.09 -2.21,5.13 -0.5,-0.83 -1.87,-2.74 -0.36,-3.6 -1.45,-0.09 -1.87,0.6 -2.09,1.48 -0.37,1.52 1.86,3.75 0.16,5.71 -2.15,2.46 -5.03,-1.41 -5.03,-1.41 0.97,1.57 2.52,5.18 2.11,9.1 0,0 0.49,-0.49 0.84,-0.94 0.2,1.22 -0.13,2.95 -0.13,2.95l0,0h0l0,0h0.01c0.16,-0.02 1.92,-1.65 2.05,-3.86 0.12,-2.01 1.75,-3.18 2.63,-3.07 0.89,0.11 0.42,2.21 2.82,2.19 2.4,-0.03 2.06,-2.77 2.06,-2.77s-0.42,1.28 -1.51,1.04c-0.75,-0.16 -1.72,-0.57 -1.67,-2.95 0.05,-2.37 2.45,-2.5 2.81,-2.71 0.36,-0.21 0.5,-0.84 1.52,-0.68 0.8,0.13 1.48,1.17 1.48,1.17s-0.13,-2.63 -2.06,-3c-1.64,-0.31 -1.83,0.46 -2.4,0.73 -0.69,0.32 -1.54,0.81 -1.54,0.81s-0.18,-0.89 0.08,-1.38c0.7,-1.31 -0.63,-3 2.75,-2.8 -0.36,-0.55 -1.34,-1.12 -2.32,-1.14z" fill="currentColor"/>
</svg>